<svg width="646" height="352" viewBox="0 0 646 352" fill="none" xmlns="http://www.w3.org/2000/svg">
<g clip-path="url(#clip0_4_111)">
<path d="M0.727477 306.817H646V305.362H0.727477C0.325706 305.362 0 305.687 0 306.089C0 306.491 0.325699 306.817 0.727477 306.817Z" fill="#3F3D56"/>
<path d="M295.356 319.191C298.993 336.66 319.726 315.188 319.726 315.188L344.461 312.276C344.461 312.276 360.101 312.64 370.286 320.647C380.471 328.653 387.382 318.099 387.382 318.099C398.856 321.926 412.914 321.91 425.089 320.685C442.633 318.919 456.695 305.37 459.106 287.895C472.708 189.312 397.93 140.866 397.93 140.866L376.106 81.9094C376.106 81.9094 383.017 64.8047 385.199 49.5197C387.382 34.2347 371.377 19.6775 351.735 5.12037C343.142 -1.24839 333.296 -0.790633 324.937 1.73945C315.561 4.5777 307.382 10.4143 301.338 18.128C296.331 24.5186 287.743 33.5693 278.304 35.1372C275.037 35.6758 271.815 36.9714 268.803 39.3297C265.689 41.768 264.314 45.8367 264.271 50.8953C264.038 72.9931 282.276 99.5963 298.266 103.745C317.908 108.84 307.359 157.243 307.359 157.243C275.35 202.37 297.902 252.592 297.902 252.592L292.082 293.352C292.082 293.352 291.719 301.722 295.356 319.191Z" fill="#3F3D56"/>
<path d="M402.295 225.297L394.293 325.014C394.293 325.014 405.205 352.672 368.104 351.217C331.002 349.761 352.827 292.988 352.827 292.988L364.466 218.747" fill="#3F3D56"/>
<path d="M370.864 352C369.957 352 369.029 351.982 368.075 351.944C359.862 351.622 353.814 348.595 350.099 342.949C339.476 326.804 351.291 294.978 352.12 292.8L363.747 218.634C363.81 218.236 364.179 217.969 364.579 218.027C364.976 218.09 365.247 218.462 365.185 218.86L353.546 293.101C353.537 293.152 353.524 293.201 353.506 293.25C353.379 293.579 340.955 326.408 351.315 342.15C354.758 347.381 360.415 350.187 368.132 350.49C380.246 350.962 388.394 348.376 392.355 342.797C397.538 335.498 393.656 325.382 393.616 325.28C393.575 325.177 393.559 325.066 393.567 324.956L401.57 225.239C401.602 224.839 401.945 224.547 402.353 224.572C402.754 224.604 403.052 224.955 403.02 225.356L395.031 324.909C395.559 326.336 398.874 336.121 393.548 343.632C389.607 349.189 381.982 352 370.864 352Z" fill="#2F2E41"/>
<path d="M336.095 245.677C336.095 245.677 338.277 338.115 292.446 335.932C246.615 333.748 288.081 304.634 288.081 304.634L292.082 293.352" fill="#3F3D56"/>
<path d="M294.019 336.697C293.487 336.697 292.952 336.684 292.411 336.659C279.325 336.035 271.931 333.102 270.436 327.94C267.741 318.639 285.305 305.725 287.472 304.173L291.397 293.109C291.531 292.729 291.947 292.532 292.325 292.666C292.704 292.8 292.902 293.216 292.768 293.595L288.767 304.877C288.716 305.02 288.622 305.143 288.499 305.229C288.307 305.365 269.31 318.829 271.833 327.535C273.137 332.034 280.084 334.614 292.481 335.205C300.737 335.602 307.974 332.824 313.978 326.959C336.495 304.966 335.381 246.284 335.367 245.694C335.358 245.293 335.675 244.959 336.078 244.949C336.458 244.95 336.812 245.259 336.822 245.66C336.88 248.095 337.966 305.561 314.996 327.999C309.083 333.775 302.032 336.697 294.019 336.697Z" fill="#2F2E41"/>
<path d="M264.271 50.8953C269.494 51.5213 277.671 51.4921 284.444 46.9722C291.697 42.1319 284.167 37.6192 278.304 35.1372C275.037 35.6758 271.815 36.9714 268.803 39.3297C265.689 41.768 264.314 45.8367 264.271 50.8953Z" fill="#2F2E41"/>
<path d="M348.679 37.8077C348.679 37.8077 335.985 5.18775 354.166 4.7313C372.347 4.27485 386.708 32.5427 386.708 32.5427C386.708 32.5427 432.341 115.768 369.82 111.28C307.3 106.792 337.176 73.5689 337.176 73.5689C337.176 73.5689 351.435 56.028 348.679 37.8077Z" fill="#2F2E41"/>
<path d="M418.328 281.572C426.379 285.156 434.792 288.813 443.597 288.463C452.403 288.113 461.669 282.44 463.041 273.73C463.749 269.234 462.344 264.411 464.065 260.197C466.38 254.528 473.847 252.342 479.652 254.285C485.456 256.228 489.721 261.237 492.778 266.542C498.498 276.468 500.79 289.495 494.657 299.171C489.34 307.558 479.256 311.348 469.875 314.599C457.381 318.93 443.431 323.227 431.324 317.908C419.147 312.559 412.514 297.103 417.023 284.585" fill="#3F3D56"/>
<path d="M391.466 124.407C391.466 124.407 407.47 132.413 399.468 141.147C391.466 149.882 341.998 174.629 323.811 170.989C305.624 167.35 301.259 156.432 301.259 153.521C301.259 150.609 302.631 115.391 308.451 116.847C314.27 118.302 350.727 151.337 391.466 124.407Z" fill="#FF7700"/>
</g>
<defs>
<clipPath id="clip0_4_111">
<rect width="646" height="352" fill="white"/>
</clipPath>
</defs>
</svg>
