<svg width="50" height="51" viewBox="0 0 50 51" fill="none" xmlns="http://www.w3.org/2000/svg">
<path d="M44.4167 20.3958L40.4792 19.0833L42.3333 15.375C42.5213 14.9868 42.5842 14.5499 42.5133 14.1245C42.4424 13.6991 42.2412 13.3062 41.9375 13L37.5 8.56247C37.1922 8.25431 36.7955 8.0504 36.3657 7.97939C35.936 7.90839 35.4948 7.97387 35.1042 8.16663L31.3958 10.0208L30.0833 6.0833C29.9447 5.67287 29.6816 5.31585 29.3306 5.06194C28.9796 4.80803 28.5582 4.66985 28.125 4.66663H21.875C21.4382 4.66551 21.0122 4.80167 20.657 5.05589C20.3019 5.3101 20.0356 5.66951 19.8958 6.0833L18.5833 10.0208L14.875 8.16663C14.4868 7.97867 14.0499 7.91581 13.6245 7.98671C13.1991 8.05761 12.8062 8.25878 12.5 8.56247L8.0625 13C7.75434 13.3078 7.55043 13.7045 7.47942 14.1342C7.40842 14.564 7.4739 15.0052 7.66666 15.3958L9.52083 19.1041L5.58333 20.4166C5.1729 20.5552 4.81588 20.8184 4.56197 21.1694C4.30806 21.5203 4.16988 21.9418 4.16666 22.375V28.625C4.16554 29.0617 4.3017 29.4878 4.55592 29.8429C4.81013 30.1981 5.16954 30.4644 5.58333 30.6041L9.52083 31.9166L7.66666 35.625C7.4787 36.0131 7.41584 36.45 7.48674 36.8754C7.55764 37.3008 7.75881 37.6938 8.0625 38L12.5 42.4375C12.8078 42.7456 13.2045 42.9495 13.6343 43.0205C14.064 43.0915 14.5052 43.0261 14.8958 42.8333L18.6042 40.9791L19.9167 44.9166C20.0564 45.3304 20.3227 45.6898 20.6779 45.944C21.033 46.1983 21.4591 46.3344 21.8958 46.3333H28.1458C28.5826 46.3344 29.0087 46.1983 29.3638 45.944C29.719 45.6898 29.9852 45.3304 30.125 44.9166L31.4375 40.9791L35.1458 42.8333C35.5315 43.0165 35.9642 43.0768 36.3852 43.006C36.8063 42.9352 37.1954 42.7367 37.5 42.4375L41.9375 38C42.2456 37.6921 42.4496 37.2954 42.5206 36.8657C42.5916 36.4359 42.5261 35.9947 42.3333 35.6041L40.4792 31.8958L44.4167 30.5833C44.8271 30.4447 45.1841 30.1816 45.438 29.8306C45.6919 29.4796 45.8301 29.0582 45.8333 28.625V22.375C45.8345 21.9382 45.6983 21.5121 45.4441 21.157C45.1899 20.8018 44.8305 20.5356 44.4167 20.3958ZM41.6667 27.125L39.1667 27.9583C38.5918 28.1448 38.0643 28.4541 37.6209 28.8648C37.1775 29.2754 36.8288 29.7777 36.5989 30.3366C36.369 30.8955 36.2634 31.4978 36.2895 32.1016C36.3156 32.7054 36.4727 33.2963 36.75 33.8333L37.9375 36.2083L35.6458 38.5L33.3333 37.25C32.7991 36.9838 32.2139 36.8355 31.6173 36.8152C31.0208 36.7948 30.4268 36.9029 29.8757 37.132C29.3245 37.3612 28.829 37.7061 28.4227 38.1434C28.0165 38.5807 27.7089 39.1001 27.5208 39.6666L26.6875 42.1666H23.375L22.5417 39.6666C22.3552 39.0917 22.0459 38.5643 21.6352 38.1209C21.2245 37.6775 20.7223 37.3288 20.1634 37.0988C19.6044 36.8689 19.0022 36.7634 18.3984 36.7895C17.7946 36.8155 17.2037 36.9727 16.6667 37.25L14.2917 38.4375L12 36.1458L13.25 33.8333C13.5273 33.2963 13.6844 32.7054 13.7105 32.1016C13.7366 31.4978 13.631 30.8955 13.4011 30.3366C13.1712 29.7777 12.8225 29.2754 12.379 28.8648C11.9356 28.4541 11.4082 28.1448 10.8333 27.9583L8.33333 27.125V23.875L10.8333 23.0416C11.4082 22.8552 11.9356 22.5459 12.379 22.1352C12.8225 21.7245 13.1712 21.2223 13.4011 20.6633C13.631 20.1044 13.7366 19.5022 13.7105 18.8983C13.6844 18.2945 13.5273 17.7036 13.25 17.1666L12.0625 14.8541L14.3542 12.5625L16.6667 13.75C17.2037 14.0272 17.7946 14.1844 18.3984 14.2105C19.0022 14.2366 19.6044 14.131 20.1634 13.9011C20.7223 13.6712 21.2245 13.3224 21.6352 12.879C22.0459 12.4356 22.3552 11.9082 22.5417 11.3333L23.375 8.8333H26.625L27.4583 11.3333C27.6448 11.9082 27.9541 12.4356 28.3648 12.879C28.7755 13.3224 29.2777 13.6712 29.8366 13.9011C30.3955 14.131 30.9978 14.2366 31.6016 14.2105C32.2054 14.1844 32.7963 14.0272 33.3333 13.75L35.7083 12.5625L38 14.8541L36.75 17.1666C36.4838 17.7009 36.3355 18.2861 36.3152 18.8827C36.2948 19.4792 36.4029 20.0732 36.6321 20.6243C36.8612 21.1755 37.2061 21.6709 37.6434 22.0772C38.0807 22.4835 38.6002 22.7911 39.1667 22.9791L41.6667 23.8125V27.125ZM25 17.1666C23.3518 17.1666 21.7407 17.6554 20.3702 18.5711C18.9998 19.4867 17.9317 20.7882 17.301 22.3109C16.6703 23.8337 16.5052 25.5092 16.8268 27.1257C17.1483 28.7422 17.942 30.2271 19.1074 31.3925C20.2729 32.558 21.7577 33.3516 23.3742 33.6732C24.9908 33.9947 26.6663 33.8297 28.189 33.199C29.7117 32.5682 31.0132 31.5001 31.9289 30.1297C32.8446 28.7593 33.3333 27.1481 33.3333 25.5C33.3333 23.2898 32.4554 21.1702 30.8926 19.6074C29.3297 18.0446 27.2101 17.1666 25 17.1666ZM25 29.6666C24.1759 29.6666 23.3703 29.4223 22.6851 28.9644C21.9999 28.5066 21.4659 27.8558 21.1505 27.0945C20.8351 26.3331 20.7526 25.4953 20.9134 24.6871C21.0742 23.8788 21.471 23.1364 22.0537 22.5537C22.6364 21.971 23.3789 21.5741 24.1871 21.4134C24.9954 21.2526 25.8331 21.3351 26.5945 21.6505C27.3559 21.9658 28.0066 22.4999 28.4645 23.1851C28.9223 23.8703 29.1667 24.6759 29.1667 25.5C29.1667 26.605 28.7277 27.6648 27.9463 28.4462C27.1649 29.2276 26.1051 29.6666 25 29.6666Z" fill="#B0B0B0"/>
</svg>
