<svg width="55" height="55" viewBox="0 0 55 55" fill="none" xmlns="http://www.w3.org/2000/svg">
<path d="M32.0833 21.6562H29.7916V19.3645C29.7916 18.7567 29.5502 18.1738 29.1204 17.7441C28.6907 17.3143 28.1078 17.0729 27.5 17.0729C26.8922 17.0729 26.3093 17.3143 25.8795 17.7441C25.4497 18.1738 25.2083 18.7567 25.2083 19.3645V21.6562H22.9166C22.3089 21.6562 21.726 21.8976 21.2962 22.3274C20.8664 22.7572 20.625 23.3401 20.625 23.9479C20.625 24.5556 20.8664 25.1385 21.2962 25.5683C21.726 25.9981 22.3089 26.2395 22.9166 26.2395H25.2083V28.5312C25.2083 29.139 25.4497 29.7219 25.8795 30.1516C26.3093 30.5814 26.8922 30.8229 27.5 30.8229C28.1078 30.8229 28.6907 30.5814 29.1204 30.1516C29.5502 29.7219 29.7916 29.139 29.7916 28.5312V26.2395H32.0833C32.6911 26.2395 33.274 25.9981 33.7038 25.5683C34.1335 25.1385 34.375 24.5556 34.375 23.9479C34.375 23.3401 34.1335 22.7572 33.7038 22.3274C33.274 21.8976 32.6911 21.6562 32.0833 21.6562ZM46.8875 22.0687C46.5904 18.9562 45.5484 15.961 43.8497 13.3361C42.1509 10.7113 39.8453 8.53387 37.1275 6.98797C34.4098 5.44208 31.3599 4.57309 28.2356 4.45446C25.1112 4.33582 22.0042 4.97102 19.1771 6.30637C16.3499 7.64172 13.8858 9.63799 11.9929 12.1265C10.1 14.615 8.83387 17.5226 8.30161 20.6035C7.76934 23.6845 7.98655 26.8484 8.93486 29.8277C9.88317 32.807 11.5347 35.5143 13.75 37.7208L25.8958 49.8895C26.1088 50.1043 26.3623 50.2748 26.6416 50.3912C26.9208 50.5075 27.2204 50.5674 27.5229 50.5674C27.8254 50.5674 28.125 50.5075 28.4042 50.3912C28.6835 50.2748 28.9369 50.1043 29.15 49.8895L41.25 37.7208C43.2923 35.6937 44.8578 33.2374 45.8329 30.5302C46.808 27.8229 47.1682 24.9325 46.8875 22.0687ZM38.0416 34.4895L27.5 45.0312L16.9583 34.4895C15.4048 32.9359 14.2147 31.0574 13.4738 28.989C12.7328 26.9206 12.4593 24.7137 12.6729 22.527C12.8879 20.3066 13.5936 18.1618 14.739 16.2475C15.8844 14.3332 17.4408 12.6974 19.2958 11.4583C21.7271 9.84319 24.5811 8.98166 27.5 8.98166C30.4189 8.98166 33.2728 9.84319 35.7041 11.4583C37.5535 12.6926 39.1065 14.3212 40.2516 16.2271C41.3967 18.133 42.1055 20.2688 42.3271 22.4812C42.5476 24.6753 42.2776 26.891 41.5364 28.9679C40.7952 31.0447 39.6015 32.9308 38.0416 34.4895Z" fill="#B0B0B0"/>
</svg>
