<svg width="30" height="30" viewBox="0 0 30 30" fill="none" xmlns="http://www.w3.org/2000/svg">
<path d="M27.1375 25.3625L22.5 20.7625C24.3001 18.518 25.1719 15.6691 24.936 12.8016C24.7001 9.93413 23.3746 7.26598 21.2319 5.3458C19.0892 3.42563 16.2923 2.39939 13.4162 2.47809C10.5401 2.55679 7.8034 3.73445 5.76893 5.76893C3.73445 7.8034 2.55679 10.54 2.47809 13.4162C2.39939 16.2923 3.42564 19.0892 5.34581 21.2319C7.26598 23.3746 9.93413 24.7001 12.8016 24.936C15.6691 25.1719 18.518 24.3001 20.7625 22.5L25.3625 27.1C25.4787 27.2172 25.617 27.3102 25.7693 27.3736C25.9216 27.4371 26.085 27.4697 26.25 27.4697C26.415 27.4697 26.5784 27.4371 26.7307 27.3736C26.883 27.3102 27.0213 27.2172 27.1375 27.1C27.3628 26.8669 27.4887 26.5554 27.4887 26.2313C27.4887 25.9071 27.3628 25.5956 27.1375 25.3625ZM13.75 22.5C12.0194 22.5 10.3277 21.9868 8.88876 21.0254C7.44983 20.0639 6.32832 18.6973 5.66606 17.0985C5.00379 15.4996 4.83051 13.7403 5.16813 12.043C5.50575 10.3456 6.33911 8.78652 7.56282 7.56281C8.78653 6.33911 10.3456 5.50575 12.043 5.16813C13.7403 4.83051 15.4996 5.00379 17.0985 5.66605C18.6973 6.32832 20.0639 7.44983 21.0254 8.88876C21.9868 10.3277 22.5 12.0194 22.5 13.75C22.5 16.0706 21.5781 18.2962 19.9372 19.9372C18.2962 21.5781 16.0706 22.5 13.75 22.5Z" fill="#989898"/>
</svg>
