<svg width="50" height="51" viewBox="0 0 50 51" fill="none" xmlns="http://www.w3.org/2000/svg">
<path d="M41.6667 17.1667L29.1667 6.20835C28.0208 5.18344 26.5374 4.61682 25 4.61682C23.4627 4.61682 21.9792 5.18344 20.8333 6.20835L8.33335 17.1667C7.67162 17.7585 7.14356 18.4845 6.78433 19.2964C6.42511 20.1082 6.24296 20.9873 6.25001 21.875V40.0833C6.25001 41.7409 6.90849 43.3307 8.0806 44.5028C9.2527 45.6749 10.8424 46.3333 12.5 46.3333H37.5C39.1576 46.3333 40.7473 45.6749 41.9194 44.5028C43.0915 43.3307 43.75 41.7409 43.75 40.0833V21.8542C43.7541 20.9699 43.5705 20.0949 43.2114 19.2868C42.8523 18.4788 42.3258 17.7562 41.6667 17.1667ZM29.1667 42.1667H20.8333V31.75C20.8333 31.1975 21.0528 30.6676 21.4435 30.2769C21.8342 29.8862 22.3641 29.6667 22.9167 29.6667H27.0833C27.6359 29.6667 28.1658 29.8862 28.5565 30.2769C28.9472 30.6676 29.1667 31.1975 29.1667 31.75V42.1667ZM39.5834 40.0833C39.5834 40.6359 39.3639 41.1658 38.9732 41.5565C38.5825 41.9472 38.0526 42.1667 37.5 42.1667H33.3333V31.75C33.3333 30.0924 32.6749 28.5027 31.5028 27.3306C30.3307 26.1585 28.741 25.5 27.0833 25.5H22.9167C21.2591 25.5 19.6694 26.1585 18.4973 27.3306C17.3252 28.5027 16.6667 30.0924 16.6667 31.75V42.1667H12.5C11.9475 42.1667 11.4176 41.9472 11.0269 41.5565C10.6362 41.1658 10.4167 40.6359 10.4167 40.0833V21.8542C10.4171 21.5584 10.4804 21.266 10.6026 20.9966C10.7247 20.7272 10.9028 20.4869 11.125 20.2917L23.625 9.35418C24.0052 9.02018 24.494 8.83598 25 8.83598C25.5061 8.83598 25.9948 9.02018 26.375 9.35418L38.875 20.2917C39.0972 20.4869 39.2753 20.7272 39.3975 20.9966C39.5196 21.266 39.583 21.5584 39.5834 21.8542V40.0833Z" fill="#141414"/>
</svg>
