<svg width="50" height="50" viewBox="0 0 50 50" fill="none" xmlns="http://www.w3.org/2000/svg">
<path d="M37.5 27.4583V20.8333C37.497 17.8815 36.4495 15.026 34.5429 12.7725C32.6364 10.5189 29.9939 9.01281 27.0833 8.52084V6.25001C27.0833 5.69747 26.8638 5.16757 26.4731 4.77687C26.0824 4.38617 25.5525 4.16667 25 4.16667C24.4475 4.16667 23.9176 4.38617 23.5269 4.77687C23.1362 5.16757 22.9167 5.69747 22.9167 6.25001V8.52084C20.0061 9.01281 17.3636 10.5189 15.4571 12.7725C13.5505 15.026 12.503 17.8815 12.5 20.8333V27.4583C11.2843 27.8882 10.2312 28.6835 9.48529 29.7353C8.73933 30.7871 8.33696 32.0439 8.33334 33.3333V37.5C8.33334 38.0525 8.55283 38.5824 8.94353 38.9731C9.33423 39.3638 9.86413 39.5833 10.4167 39.5833H16.9583C17.4381 41.3487 18.4854 42.9071 19.9387 44.0182C21.3921 45.1293 23.1706 45.7313 25 45.7313C26.8294 45.7313 28.6079 45.1293 30.0613 44.0182C31.5146 42.9071 32.5619 41.3487 33.0417 39.5833H39.5833C40.1359 39.5833 40.6658 39.3638 41.0565 38.9731C41.4472 38.5824 41.6667 38.0525 41.6667 37.5V33.3333C41.663 32.0439 41.2607 30.7871 40.5147 29.7353C39.7688 28.6835 38.7157 27.8882 37.5 27.4583ZM16.6667 20.8333C16.6667 18.6232 17.5446 16.5036 19.1074 14.9408C20.6702 13.378 22.7899 12.5 25 12.5C27.2101 12.5 29.3298 13.378 30.8926 14.9408C32.4554 16.5036 33.3333 18.6232 33.3333 20.8333V27.0833H16.6667V20.8333ZM25 41.6667C24.2729 41.6623 23.5595 41.4677 22.9309 41.1022C22.3023 40.7367 21.7802 40.2131 21.4167 39.5833H28.5833C28.2198 40.2131 27.6977 40.7367 27.0691 41.1022C26.4405 41.4677 25.7271 41.6623 25 41.6667ZM37.5 35.4167H12.5V33.3333C12.5 32.7808 12.7195 32.2509 13.1102 31.8602C13.5009 31.4695 14.0308 31.25 14.5833 31.25H35.4167C35.9692 31.25 36.4991 31.4695 36.8898 31.8602C37.2805 32.2509 37.5 32.7808 37.5 33.3333V35.4167Z" fill="black"/>
</svg>
