<svg width="50" height="51" viewBox="0 0 50 51" fill="none" xmlns="http://www.w3.org/2000/svg">
<path d="M25 4.66663C20.5797 4.66663 16.3405 6.42257 13.2149 9.54818C10.0893 12.6738 8.33334 16.913 8.33334 21.3333C8.33334 32.5833 23.0208 45.2916 23.6458 45.8333C24.0232 46.1561 24.5034 46.3334 25 46.3334C25.4966 46.3334 25.9768 46.1561 26.3542 45.8333C27.0833 45.2916 41.6667 32.5833 41.6667 21.3333C41.6667 16.913 39.9107 12.6738 36.7851 9.54818C33.6595 6.42257 29.4203 4.66663 25 4.66663ZM25 41.4375C20.5625 37.2708 12.5 28.2916 12.5 21.3333C12.5 18.0181 13.817 14.8387 16.1612 12.4945C18.5054 10.1503 21.6848 8.83329 25 8.83329C28.3152 8.83329 31.4946 10.1503 33.8388 12.4945C36.1831 14.8387 37.5 18.0181 37.5 21.3333C37.5 28.2916 29.4375 37.2916 25 41.4375ZM25 13C23.3518 13 21.7407 13.4887 20.3703 14.4044C18.9999 15.3201 17.9317 16.6215 17.301 18.1443C16.6703 19.667 16.5053 21.3425 16.8268 22.959C17.1483 24.5756 17.942 26.0604 19.1075 27.2258C20.2729 28.3913 21.7578 29.185 23.3743 29.5065C24.9908 29.828 26.6663 29.663 28.189 29.0323C29.7118 28.4016 31.0132 27.3335 31.9289 25.963C32.8446 24.5926 33.3333 22.9815 33.3333 21.3333C33.3333 19.1232 32.4554 17.0035 30.8926 15.4407C29.3298 13.8779 27.2101 13 25 13ZM25 25.5C24.1759 25.5 23.3703 25.2556 22.6851 24.7977C21.9999 24.3399 21.4659 23.6892 21.1505 22.9278C20.8351 22.1664 20.7526 21.3287 20.9134 20.5204C21.0742 19.7122 21.471 18.9697 22.0537 18.387C22.6365 17.8043 23.3789 17.4075 24.1871 17.2467C24.9954 17.0859 25.8332 17.1684 26.5945 17.4838C27.3559 17.7992 28.0066 18.3332 28.4645 19.0184C28.9223 19.7036 29.1667 20.5092 29.1667 21.3333C29.1667 22.4384 28.7277 23.4982 27.9463 24.2796C27.1649 25.061 26.1051 25.5 25 25.5Z" fill="#B0B0B0"/>
</svg>
